<svg width="211mm" height="142mm" version="1.1" viewBox="0 0 211 142" xmlns="http://www.w3.org/2000/svg"><rect width="211" height="142" fill="#fff"/>
 <g stroke="#000"><path d="m11 115 46-108 127 33.94c-7 9-22 34-33 38-14 6-46 7-62 28s-63 38-78 8z" fill="#fad"/><path d="m184 41 27 7m-20-32s5 10-7 25m-173 74-8 18m8-18c-8-20-9-26-9-26" fill="none" stroke-dasharray="2"/><path d="m48.4 131a122 124.3 6.2 0 1 -40 -9.8l48.5-114.2zm43-12.4a116 126.5 88.7 0 1 -42.4 4.3l8-116zm26-30a101.6 101.2 81 0 1 -30.4 15.4l-30-97zm31.6-19a111.3 110.8 61.5 0 1 -25.8 27l-66-89.5zm30.7-30a127 126.4 43.3 0 1 -17.6 38.8l-105-71.5z" fill="#87f" fill-opacity=".5"/></g>
 <circle cx="57" cy="7" r="2"/><path d="m87.5 104 17.98 16m17.51-23c1 1 9 7 9 7m30-26 6 5" stroke="#000" stroke-width=".5"/>
 <g font-family="Times" font-size="12px" font-style="italic"><text x="44" y="12">O</text><text x="169" y="89">r<tspan font-style="normal">(</tspan>φ<tspan dy="4" font-size="10px">i+</tspan><tspan font-size="10px" font-style="normal">1</tspan><tspan dy="-4" font-style="normal">)</tspan></text><text x="132" y="112">r<tspan font-style="normal">(</tspan>φ<tspan dy="4" font-size="10px">i</tspan><tspan dy="-4" font-style="normal">)</tspan></text><text x="106" y="125">r<tspan font-style="normal">(</tspan>φ<tspan dy="4" font-size="10px">i-</tspan><tspan font-size="10px" font-style="normal">1</tspan><tspan dy="-4" font-style="normal">)</tspan></text><text x="5" y="138">φ = a</text><text x="179" y="57">φ = b</text><text x="82" y="71">R</text><text x="169" y="31">r<tspan font-style="normal">(</tspan>φ<tspan font-style="normal">)</tspan></text></g></svg>